<svg width="16" height="16" viewBox="0 0 16 16" fill="none" xmlns="http://www.w3.org/2000/svg">
  <path d="M12 2.5C12 3.33 11.33 4 10.5 4C10.21 4 9.94 3.91 9.71 3.76L7.26 6.21C7.41 6.44 7.5 6.71 7.5 7C7.5 7.29 7.41 7.56 7.26 7.79L9.71 10.24C9.94 10.09 10.21 10 10.5 10C11.33 10 12 10.67 12 11.5C12 12.33 11.33 13 10.5 13C9.67 13 9 12.33 9 11.5C9 11.21 9.09 10.94 9.24 10.71L6.79 8.26C6.56 8.41 6.29 8.5 6 8.5C5.71 8.5 5.44 8.41 5.21 8.26L2.76 10.71C2.91 10.94 3 11.21 3 11.5C3 12.33 2.33 13 1.5 13C0.67 13 0 12.33 0 11.5C0 10.67 0.67 10 1.5 10C1.79 10 2.06 10.09 2.29 10.24L4.74 7.79C4.59 7.56 4.5 7.29 4.5 7C4.5 6.17 5.17 5.5 6 5.5C6.29 5.5 6.56 5.59 6.79 5.74L9.24 3.29C9.09 3.06 9 2.79 9 2.5C9 1.67 9.67 1 10.5 1C11.33 1 12 1.67 12 2.5Z" fill="currentColor"/>
  <circle cx="14" cy="5.5" r="2" fill="currentColor"/>
</svg>
